<svg id="Calque_1" data-name="Calque 1" xmlns="http://www.w3.org/2000/svg" viewBox="0 0 171 171"><defs><style>.cls-1{fill:#fff;}.cls-2,.cls-4{fill:none;}.cls-2{stroke:#1d1d1b;}.cls-2,.cls-3,.cls-4{stroke-miterlimit:10;}.cls-3{fill:#191d39;}.cls-3,.cls-4{stroke:#191d39;}.cls-4{stroke-linecap:round;}</style></defs><title>Plan de travail 4</title><rect class="cls-1" width="171" height="171"/><line class="cls-2" x1="96.99" y1="78.65" x2="96.98" y2="78.65"/><line class="cls-2" x1="96.99" y1="78.65" x2="96.98" y2="78.65"/><polygon class="cls-3" points="18 18 72 81 27 153 45 153 90 81 36 18 18 18"/><polyline class="cls-4" points="54 153 99 81 45 18"/><path class="cls-4" d="M74.21,41.58A36,36,0,0,1,144,54"/><path class="cls-4" d="M102.63,89.6A36.49,36.49,0,0,0,108,90a18,18,0,1,1-17.92,19.68h0"/><line class="cls-2" x1="83.73" y1="119.83" x2="73.26" y2="136.59"/><path class="cls-3" d="M73.26,136.59A45,45,0,1,0,108,63a9,9,0,1,1,9-9h18a27,27,0,0,0-53.69-4.13L108,81a27,27,0,1,1-24.27,38.83Z"/><line class="cls-2" x1="90.08" y1="109.68" x2="90.08" y2="109.67"/></svg>